<svg width="72" height="64" viewBox="0 0 72 64" fill="none" xmlns="http://www.w3.org/2000/svg">
<path d="M36.7427 0.0520172C36.6722 0.0844688 36.5697 0.162354 36.5121 0.227253C36.4544 0.298645 34.2636 3.82278 31.6436 8.07381C28.0498 13.8955 26.8776 15.8555 26.8583 16.0307C26.8007 16.5889 27.4605 16.9328 27.8769 16.5694C27.9345 16.5175 29.9908 13.2075 32.4571 9.20959C34.917 5.21167 36.9541 1.94065 36.9733 1.94065C37.0053 1.94065 40.3172 7.28202 46.8961 17.9713C47.2612 18.5619 48.0556 19.8469 48.6577 20.8269C49.2599 21.8069 50.272 23.4424 50.8934 24.4614C51.5212 25.4803 52.2451 26.6486 52.5013 27.0574C52.7575 27.4663 53.4814 28.6345 54.1092 29.6535C56.3384 33.275 57.4531 35.0857 57.9335 35.8645C58.2026 36.2994 58.4268 36.6693 58.4268 36.6888C58.4268 36.7147 52.9369 36.7277 46.2235 36.7277H34.0202V35.0598V33.3918L34.2316 33.593C34.7569 34.1057 35.6473 34.5211 36.5505 34.6833C37.2552 34.8066 37.6267 34.8066 37.8573 34.6833C38.1648 34.5276 38.2161 34.1252 37.979 33.8396C37.8509 33.6968 37.7677 33.6644 37.3833 33.6449C35.5256 33.5216 34.4366 32.6714 34.1099 31.0813C34.0586 30.8217 34.0266 30.5946 34.0458 30.5816C34.0586 30.5621 34.2444 30.6919 34.4494 30.8606C35.1604 31.4448 36.3519 31.8601 37.3577 31.8601C37.7164 31.8601 37.8061 31.8342 37.9534 31.6979C38.3057 31.3734 38.0751 30.7633 37.5947 30.7503C36.0765 30.7179 34.8722 30.0753 34.3981 29.0499C34.1867 28.5826 34.0202 27.8882 34.0202 27.4209V27.1029L34.3981 27.4923C35.0451 28.1672 36.1469 28.8098 36.6466 28.8098C36.9797 28.8098 37.2167 28.4918 37.1591 28.0959C37.1335 27.9141 36.9028 27.7324 36.5569 27.6221C35.7562 27.3625 34.9683 26.6356 34.5327 25.7399C34.2444 25.1493 34.1099 24.5847 34.0458 23.715C34.0074 23.2347 33.9753 23.1114 33.8536 22.9881C33.6422 22.774 33.2002 22.7804 32.9952 23.0011C32.8671 23.1374 32.8415 23.2607 32.7966 23.8254C32.739 24.6756 32.6557 25.0195 32.3482 25.6685C32.0343 26.3435 31.5347 26.8627 30.9133 27.1678C30.6699 27.2846 30.4008 27.3819 30.3175 27.3819C30.0933 27.3819 29.7923 27.7194 29.7923 27.9661C29.7923 28.2192 30.0933 28.5502 30.324 28.5502C30.7724 28.5502 31.8293 28.0115 32.3674 27.5117C32.5981 27.3041 32.8031 27.1418 32.8223 27.1613C32.8735 27.2197 32.8031 27.9531 32.707 28.3555C32.3674 29.7443 31.3809 30.5232 29.7282 30.6919C28.9531 30.7763 28.9146 30.7893 28.7929 31.0229C28.6648 31.276 28.7289 31.5551 28.9403 31.7303C29.4527 32.1392 31.6436 31.5616 32.534 30.7893L32.8031 30.5491V30.7373C32.8031 31.3539 32.3674 32.3015 31.887 32.7428C31.3361 33.2425 30.3816 33.6125 29.6129 33.6125C29.4271 33.6125 29.1773 33.6514 29.062 33.7033C28.6456 33.8786 28.62 34.4821 29.0236 34.7028C29.2349 34.8196 30.0421 34.7612 30.7211 34.5925C31.3233 34.4367 32.1753 34.0213 32.5404 33.6968C32.8415 33.4437 32.8799 33.4762 32.8415 33.937C32.8287 34.0992 32.8159 34.7937 32.8095 35.4751L32.8031 36.7277H27.8705H22.9379V34.547V32.3664L23.239 32.6389C23.5913 32.9505 24.4177 33.3723 24.9558 33.5151C25.5067 33.6644 26.4932 33.7163 26.679 33.6125C27.0057 33.4372 27.0569 33.0413 26.7879 32.7623C26.6213 32.6 26.5509 32.574 26.2242 32.574C25.3658 32.5676 24.4241 32.2236 23.854 31.7044C23.4824 31.3604 23.1685 30.8087 23.0404 30.2506C22.9507 29.8482 22.9764 29.7573 23.1365 29.952C23.2646 30.1078 23.7258 30.4193 24.155 30.6335C24.9878 31.0489 26.4996 31.2371 26.7815 30.9515C27.0505 30.6789 26.9929 30.2506 26.6726 30.0883C26.5765 30.0364 26.2498 29.978 25.9487 29.9585C24.738 29.8741 23.7579 29.2835 23.2966 28.3684C23.1301 28.031 22.9379 27.3495 22.9379 27.0704C22.9379 26.9276 22.9571 26.9341 23.2454 27.1872C23.918 27.7973 25.1159 28.2257 26.1281 28.2257C26.5637 28.2257 26.6726 28.2062 26.7815 28.0959C26.9544 27.9206 26.9993 27.6805 26.8968 27.4728C26.7815 27.2262 26.5637 27.1223 26.1345 27.1223C25.654 27.1223 24.8725 26.9147 24.4049 26.6615C23.9565 26.4214 23.5273 25.9671 23.2966 25.5128C23.1301 25.1753 22.9379 24.4938 22.9379 24.2148C22.9379 24.072 22.9571 24.0785 23.239 24.3316C23.6298 24.6756 24.4369 25.0779 25.0775 25.2402C25.5643 25.3635 26.4612 25.4154 26.6854 25.3311C26.8455 25.2662 26.9865 24.9287 26.9416 24.721C26.8712 24.3965 26.711 24.3186 26.0384 24.2602C24.3857 24.1174 23.3607 23.3191 23.034 21.9173C22.9828 21.6901 22.9379 21.437 22.9379 21.3591C22.9379 21.2163 22.9571 21.2228 23.2262 21.4629C23.8924 22.0535 24.9109 22.443 25.9551 22.4949C26.5893 22.5273 26.6469 22.5208 26.7687 22.3975C26.9544 22.2093 26.9993 21.9757 26.8968 21.7615C26.7815 21.5149 26.5637 21.411 26.1345 21.411C25.6861 21.411 24.9109 21.2163 24.4753 20.9892C23.5016 20.4894 22.9443 19.451 22.9379 18.14V17.6922L23.4376 18.1789C24.2639 18.9967 25.4939 19.7041 26.2049 19.769C26.5252 19.8015 26.7494 19.6587 26.8199 19.3666C26.9032 19.0421 26.7302 18.8734 26.032 18.5813C25.1864 18.2374 24.6483 17.8804 24.0974 17.2898C23.3991 16.5434 22.9379 15.4077 22.9379 14.4341C22.9379 14.1031 22.8098 13.7916 22.6496 13.7267C22.3998 13.6294 22.0667 13.6878 21.913 13.85C21.7913 13.9863 21.7592 14.1096 21.7208 14.6094C21.6695 15.2908 21.5863 15.6218 21.3621 16.141C20.8752 17.2573 19.8503 18.1465 18.473 18.6527C18.2296 18.7436 17.9989 18.8669 17.9605 18.9253C17.8196 19.1135 17.858 19.4899 18.0374 19.6587C18.1719 19.7885 18.236 19.8015 18.5178 19.769C18.9022 19.7236 19.8631 19.2758 20.446 18.8734C20.6702 18.7241 21.0482 18.3996 21.2916 18.153C21.5286 17.9128 21.74 17.7117 21.7656 17.7117C21.8297 17.7117 21.7208 18.7825 21.6183 19.1849C21.4197 19.9702 20.9521 20.5673 20.2602 20.9437C19.7862 21.1968 19.0047 21.411 18.537 21.411C18.1655 21.411 17.8516 21.5343 17.7875 21.7031C17.6979 21.9432 17.7491 22.2353 17.9093 22.3845C18.0566 22.5208 18.1014 22.5273 18.6908 22.4949C19.7285 22.4365 20.4973 22.1769 21.2467 21.6317L21.7208 21.2877V21.5019C21.7208 22.112 21.2339 23.0855 20.7279 23.4879C20.1577 23.9487 19.2481 24.2667 18.5178 24.2667C18.1655 24.2667 17.8516 24.39 17.7875 24.5587C17.7043 24.7924 17.7491 25.0909 17.8964 25.2272C18.0246 25.344 18.1207 25.37 18.5114 25.37C19.4851 25.37 20.4716 25.052 21.2467 24.4873L21.7208 24.1434V24.3575C21.7208 24.9871 21.1955 26.019 20.683 26.389C20.0552 26.8368 19.2289 27.1223 18.5178 27.1223C18.1655 27.1223 17.8516 27.2456 17.7875 27.4144C17.7043 27.648 17.7491 27.9466 17.8964 28.0829C18.0246 28.2062 18.1207 28.2257 18.5563 28.2257C19.4979 28.2257 20.5549 27.8687 21.3236 27.2911L21.7208 26.9925V27.2132C21.7208 27.5766 21.4774 28.2516 21.2019 28.6735C20.7022 29.4328 19.594 29.9715 18.5306 29.978C18.1655 29.978 17.8516 30.1013 17.7875 30.27C17.7043 30.5037 17.7491 30.8022 17.8964 30.9385C18.0246 31.0618 18.1207 31.0813 18.5563 31.0813C19.5171 31.0813 20.6766 30.6854 21.4005 30.1013L21.7272 29.8417L21.6824 30.0883C21.4581 31.3279 20.5741 32.1911 19.2481 32.4767C19.0047 32.5286 18.6459 32.574 18.4474 32.574C18.1527 32.574 18.0566 32.6065 17.9157 32.7363C17.6786 32.9634 17.6786 33.3529 17.9285 33.5476C18.0886 33.6839 18.1527 33.6903 18.71 33.6579C19.0431 33.6384 19.4915 33.5735 19.7029 33.5151C20.2282 33.3788 20.9777 33.0089 21.3749 32.6974C21.5542 32.5611 21.7144 32.4442 21.7272 32.4442C21.7528 32.4442 21.7208 36.6823 21.6952 36.7147C21.6824 36.7212 20.2923 36.7212 18.5947 36.7147L15.5134 36.6953L16.3718 35.2999C17.0701 34.1771 17.2366 33.8591 17.2366 33.6709C17.2366 33.1841 16.737 32.8856 16.3142 33.1192C16.0387 33.2685 13.7582 36.9679 13.7262 37.3183C13.6942 37.6169 13.7902 37.7986 14.0337 37.9284C14.2002 38.0128 16.7626 38.0257 37.0566 38.0128L59.9001 37.9933L60.0731 37.8181C60.4126 37.4741 60.3614 37.3248 59.33 35.6569C58.4204 34.1836 57.1392 32.1068 55.2302 29.0045C54.6921 28.1283 53.9683 26.9601 53.6223 26.4084C53.2764 25.8568 52.4821 24.5717 51.8607 23.5528C39.1962 2.99205 37.4153 0.136391 37.2103 0.0649986C36.9797 -0.0193748 36.9221 -0.0193748 36.7427 0.0520172Z" fill="#18333E"/>
<path d="M39.4922 11.3133C39.3737 11.4292 37.8581 13.2053 36.4173 14.9364C36.0181 15.4126 35.6751 15.863 35.6502 15.9274C35.5628 16.1848 35.725 16.4487 36.1741 16.764C36.4173 16.9377 36.6107 17.0922 36.6107 17.1179C36.6107 17.1437 35.9683 17.8322 35.1824 18.6431C34.4027 19.4539 33.7229 20.1875 33.6792 20.2712C33.5295 20.5672 33.7229 21.0177 34.0223 21.0498C34.4027 21.0949 34.4402 21.0627 36.1928 19.2609C37.1471 18.2827 37.9704 17.3946 38.0203 17.2981C38.2136 16.9249 38.039 16.6803 37.172 16.0883L37.0223 15.9853L37.3591 15.567C37.5462 15.3354 37.9953 14.8012 38.3571 14.3829C40.3467 12.0598 40.353 12.0469 40.353 11.7381C40.353 11.3326 39.7854 11.0559 39.4922 11.3133Z" fill="#18333E"/>
<path d="M14.5186 40.7939C13.7593 40.9195 12.9377 41.3402 12.3962 41.8802C11.7054 42.571 11.3693 43.3246 11.307 44.3419C11.1888 46.2634 12.3589 47.8396 14.2447 48.3169C14.7613 48.4424 15.9127 48.4424 16.4418 48.3106C17.8795 47.9589 18.9811 46.8349 19.2799 45.4282C19.7156 43.3371 18.5268 41.403 16.4729 40.8755C16.0185 40.7562 14.9916 40.7122 14.5186 40.7939ZM16.1492 42.3575C17.3816 42.7971 17.9791 44.3607 17.4127 45.6417C16.6285 47.4 14.0393 47.3938 13.2364 45.6355C13.0746 45.2838 13.056 45.177 13.0622 44.6119C13.0622 43.7955 13.2115 43.3999 13.6783 42.9101C14.1887 42.3889 14.7862 42.1691 15.5455 42.2382C15.7509 42.257 16.0248 42.3073 16.1492 42.3575Z" fill="#18333E"/>
<path d="M37.8926 40.7843L37.0712 40.8099V43.0888V45.374L36.3116 44.4175C35.8978 43.8976 35.0888 42.8705 34.5082 42.1323L33.4645 40.8035H32.7358H32.0132L32.0441 44.5395C32.0626 46.6001 32.0749 48.3076 32.0749 48.3461C32.0688 48.3846 32.3776 48.4103 32.8716 48.4103C33.3163 48.4103 33.6745 48.3974 33.6745 48.3782C33.6745 48.3589 33.6745 47.3768 33.6807 46.1957C33.6807 45.0081 33.7054 44.0067 33.7301 43.9618C33.7548 43.9168 34.4526 44.7449 35.5643 46.1507L37.3615 48.4103H38.047H38.7387V44.5716C38.7387 42.4661 38.7325 40.7458 38.7263 40.7522C38.714 40.7586 38.3373 40.7779 37.8926 40.7843Z" fill="#18333E"/>
<path d="M41.1602 41.4947V42.2373L42.3397 42.2179L43.5193 42.1985V45.3044C43.5193 48.0164 43.5317 48.4038 43.6124 48.4038C43.662 48.4103 44.047 48.4103 44.4691 48.4103H45.2265L45.2451 45.3109L45.2575 42.205H46.4371H47.6167V41.4947V40.7844L44.3884 40.7715L41.1602 40.7522V41.4947Z" fill="#18333E"/>
<path d="M0.0383557 42.5423C0.0639262 43.5311 0.083104 45.2566 0.083104 46.3746V48.4103H0.882181H1.68126L1.69404 46.2776C1.69404 45.1015 1.70044 44.1062 1.69404 44.0545C1.68765 43.8994 1.8219 44.0933 2.60179 45.4052C3.01731 46.0967 3.48398 46.8787 3.64379 47.1307L3.92507 47.6025H4.3278H4.73054L5.81728 45.7606L6.90403 43.9123L6.94238 45.1855C6.96795 45.8899 6.98713 46.8916 6.98713 47.415V48.3715L7.78621 48.3909C8.2273 48.4038 8.59168 48.3909 8.60446 48.365C8.61085 48.3327 8.61085 46.6137 8.59807 44.5327L8.58528 40.7522H7.85652H7.12777L6.24559 42.2515C4.25109 45.6637 4.35976 45.4892 4.27666 45.36C4.23191 45.2953 3.59904 44.2355 2.87028 42.9947L1.54062 40.7522H0.773507H0L0.0383557 42.5423Z" fill="#18333E"/>
<path d="M22.0596 43.2399C22.0596 45.1337 22.0847 45.8397 22.1476 46.1763C22.3487 47.1661 22.883 47.9183 23.6561 48.3011C24.2532 48.598 24.6366 48.6838 25.4035 48.6838C26.8931 48.6838 27.8674 48.1493 28.408 47.0209C28.7537 46.3017 28.7851 45.9981 28.7851 43.2399V40.7522H27.9428H27.0943L27.0754 43.3058C27.0566 45.8199 27.0566 45.8727 26.912 46.1961C26.5977 46.9087 26.1075 47.1925 25.3029 47.1397C24.5612 47.0869 24.1652 46.7834 23.9075 46.0641C23.7944 45.7606 23.7881 45.5428 23.8069 43.2399L23.8258 40.7522H22.9395H22.0596V43.2399Z" fill="#18333E"/>
<path d="M51.7732 41.289C51.6457 41.5801 51.4352 42.0522 51.314 42.3368C51.1865 42.6214 50.5488 44.0897 49.8855 45.6032C49.2223 47.1167 48.6866 48.3585 48.6929 48.3715C48.6993 48.3779 49.1011 48.3909 49.5858 48.3973L50.4658 48.4103L50.7911 47.5888L51.1163 46.7674H52.8701H54.6239L54.9492 47.5824L55.2744 48.3909H56.0461C56.4734 48.3909 56.8943 48.3909 56.9772 48.3844C57.1175 48.3844 57.0601 48.2421 55.9696 45.7455C55.3318 44.2966 54.5793 42.5826 54.3051 41.9358L53.7949 40.7586L52.902 40.7522H52.0092L51.7732 41.289ZM53.6227 44.3225L54.0691 45.4091H52.8956C52.2515 45.4091 51.7222 45.3962 51.7222 45.3833C51.7222 45.3574 52.4811 43.4881 52.7745 42.7896L52.8829 42.5373L53.0296 42.8866C53.1061 43.0806 53.374 43.7274 53.6227 44.3225Z" fill="#18333E"/>
<path d="M59.2135 44.578L59.2482 48.4103L59.9482 48.4038C60.3359 48.3973 60.6888 48.3909 60.7293 48.3909C60.7813 48.3909 60.7987 47.5817 60.7987 44.5715V40.7522H59.9887H59.1846L59.2135 44.578Z" fill="#18333E"/>
<path d="M64.0273 44.5651V48.378L64.7332 48.3844C65.1247 48.3909 65.5161 48.3909 65.6059 48.3974L65.7664 48.4038V46.1678C65.7599 44.9334 65.7856 43.9123 65.8113 43.8994C65.8369 43.88 66.6968 44.8882 67.7171 46.1355L69.5781 48.3974L70.2968 48.4038L71.0219 48.4103V44.578V40.7522H70.1556H69.2893L69.2765 43.0399L69.2572 45.3276L68.4872 44.3906C68.0636 43.8736 67.5567 43.2532 67.3642 43.0141C67.1717 42.7749 66.7097 42.2127 66.3375 41.7539C65.9653 41.3015 65.638 40.8879 65.6123 40.8426C65.5738 40.7715 65.3813 40.7522 64.7974 40.7522H64.0273V44.5651Z" fill="#18333E"/>
<path d="M35.0615 53.1001C34.3384 53.252 33.7347 53.7342 33.5091 54.3419C33.1177 55.3724 33.5091 56.449 34.4445 56.9643C34.7829 57.1492 34.8492 57.1624 35.5325 57.1624C36.2158 57.1624 36.2888 57.1492 36.6603 56.9643L37.0583 56.7595L37.0782 55.9536L37.0982 55.1478H36.793H36.4945V55.8149V56.4755L36.2822 56.5679C35.4396 56.9114 34.4777 56.601 34.0996 55.8612C33.7679 55.2138 33.9005 54.4872 34.4379 54.005C35.035 53.47 35.8642 53.4106 36.5276 53.8663L36.7731 54.0315L36.9456 53.8531L37.1247 53.6814L36.8991 53.4898C36.4945 53.153 35.6453 52.9746 35.0615 53.1001Z" fill="#18333E"/>
<path d="M42.3457 53.0959C41.6922 53.2266 41.0864 53.6514 40.8005 54.1742C40.6031 54.5401 40.5623 55.3831 40.712 55.8275C41.0251 56.7293 42.0939 57.2979 43.1762 57.1345C43.5778 57.0757 44.136 56.8339 44.2926 56.6574C44.3743 56.5659 44.3606 56.5267 44.2109 56.383L44.0407 56.2196L43.7684 56.3895C42.7337 57.0495 41.3519 56.4614 41.1885 55.2982C41.0864 54.5924 41.5765 53.8474 42.2708 53.6514C42.8563 53.488 43.3123 53.5468 43.782 53.854L44.0407 54.0173L44.2177 53.854L44.3879 53.6906L44.2313 53.5272C43.8978 53.1809 42.972 52.9718 42.3457 53.0959Z" fill="#18333E"/>
<path d="M13.7202 55.1144V57.1624L13.9821 57.1426L14.238 57.1228L14.2562 56.2111L14.2745 55.306H15.3343H16.4003V56.2309V57.1558H16.6744H16.9485V55.1078V53.0599H16.6744H16.4003V53.9451V54.8238L15.3343 54.837L14.2684 54.8502V53.9583V53.0599H13.9943H13.7202V55.1144Z" fill="#18333E"/>
<path d="M18.8495 55.088L18.8764 57.1228L19.2623 57.1426L19.6392 57.1624V55.1144V53.0599H19.2354H18.8315L18.8495 55.088Z" fill="#18333E"/>
<path d="M21.266 55.0947L21.2855 57.1229L21.5659 57.1427L21.8398 57.1624V56.6158V56.0627L22.1855 55.7203C22.3746 55.5293 22.5441 55.3778 22.5702 55.3778C22.5898 55.3778 22.9549 55.7795 23.3723 56.2668L24.1353 57.1558H24.4613C24.6374 57.1558 24.7678 57.1295 24.7483 57.1031C24.7352 57.0768 24.3244 56.5632 23.8353 55.9705L22.9549 54.8971L23.8027 54.0015L24.657 53.1059L24.3374 53.0862L24.0244 53.0599L22.9354 54.2057L21.8464 55.3449L21.8398 54.2057V53.073H21.5464H21.2529L21.266 55.0947Z" fill="#18333E"/>
<path d="M26.1067 55.088L26.1246 57.1228L26.3819 57.1426L26.6331 57.1624V55.1144V53.0599H26.3639H26.0947L26.1067 55.088Z" fill="#18333E"/>
<path d="M28.5293 55.088L28.5491 57.1228L28.8328 57.1426L29.11 57.1624V55.6363V54.1037L29.4597 54.5331C29.6445 54.7643 30.1988 55.4514 30.6871 56.0591C31.5119 57.0831 31.5911 57.1558 31.7956 57.1558H32.0134V55.1078V53.0599H31.7494H31.4855V54.5463C31.4855 55.3655 31.4657 56.0327 31.4393 56.0327C31.4063 56.0327 30.852 55.3655 30.1988 54.5463C29.0308 53.0863 29.0044 53.0599 28.7603 53.0599H28.5161L28.5293 55.088Z" fill="#18333E"/>
<path d="M45.7334 55.1111V57.1624H47.0785H48.4236V56.8977V56.6331H47.3667H46.3099V54.8465V53.0599H46.0216H45.7334V55.1111Z" fill="#18333E"/>
<path d="M49.7686 54.4668C49.7686 56.0456 49.818 56.3164 50.1582 56.6929C50.4365 57.0034 50.8013 57.1553 51.2652 57.1619C52.0506 57.1751 52.4835 56.9373 52.768 56.3296L52.9535 55.9333L52.9721 54.4933L52.9968 53.0599H52.7123H52.4278V54.4272C52.4278 55.6162 52.4093 55.8342 52.3103 56.0654C52.1557 56.4287 52.0073 56.5542 51.6177 56.6401C50.9621 56.7788 50.455 56.4617 50.3313 55.8342C50.2942 55.6492 50.2633 54.949 50.2633 54.2819V53.0599H50.0159H49.7686V54.4668Z" fill="#18333E"/>
<path d="M54.8804 55.1111V57.1624H55.8453C57.241 57.1624 57.7326 57.0305 57.9814 56.5886C58.1392 56.3182 58.1513 55.8235 58.0117 55.5333C57.9207 55.3288 57.6233 55.0518 57.502 55.0518C57.4655 55.0518 57.5323 54.9528 57.6415 54.8341C57.9753 54.4713 57.9996 53.8711 57.7022 53.515C57.3806 53.139 57.2532 53.106 56.0212 53.0862L54.8804 53.0599V55.1111ZM57.0043 53.6403C57.2835 53.7656 57.3685 53.8975 57.3685 54.2075C57.3624 54.689 57.0408 54.8539 56.0941 54.8539H55.4265V54.1943V53.5347H56.0941C56.5674 53.5347 56.8284 53.5677 57.0043 53.6403ZM57.2228 55.4145C57.502 55.5399 57.6294 55.8565 57.5444 56.1994C57.4473 56.5688 57.2471 56.6479 56.264 56.6875L55.4265 56.7205V56.0148V55.3156H56.2154C56.7737 55.3156 57.0711 55.342 57.2228 55.4145Z" fill="#18333E"/>
<path d="M29.0243 63.1998C28.7497 63.266 28.6922 63.8676 28.9541 63.9639C29.0115 63.982 32.9399 64 37.6922 64H46.3217L46.4367 63.8737C46.5772 63.7052 46.5772 63.5066 46.4239 63.3322L46.3025 63.1878L37.7177 63.1817C33.0037 63.1757 29.0882 63.1817 29.0243 63.1998Z" fill="#18333E"/>
</svg>
