<?xml version="1.0" ?><!DOCTYPE svg  PUBLIC '-//W3C//DTD SVG 1.1//EN'  'http://www.w3.org/Graphics/SVG/1.1/DTD/svg11.dtd'><svg xmlns="http://www.w3.org/2000/svg" xmlns:xlink="http://www.w3.org/1999/xlink" xmlns:serif="http://www.serif.com/" width="100%" height="100%" viewBox="0 0 64 64" version="1.1" xml:space="preserve" style="fill-rule:evenodd;clip-rule:evenodd;stroke-linejoin:round;stroke-miterlimit:2;"><path d="M34,21.083C43.348,21.854 51,27.973 51,36C51,44.593 42.23,51 32,51C21.77,51 13,44.593 13,36C13,34.895 12.105,34 11,34L3,34C1.895,34 1,34.895 1,36C1,50.593 14.627,63 32,63C49.373,63 63,50.593 63,36C63,21.971 50.408,9.964 34,9.055C34,9.055 34,3 34,3C34,2.175 33.494,1.435 32.725,1.136C31.956,0.837 31.083,1.041 30.526,1.649L19.526,13.649C18.825,14.413 18.825,15.587 19.526,16.351L30.526,28.351C31.083,28.959 31.956,29.163 32.725,28.864C33.494,28.565 34,27.825 34,27L34,21.083ZM30,19C29.914,17.636 30.848,16.915 32,17C44.607,17 55,25.41 55,36C55,46.59 44.607,55 32,55C20.197,55 10.336,47.63 9.125,38C9.125,38 5.102,38 5.102,38C6.293,49.674 17.813,59 32,59C46.989,59 59,48.591 59,36C59,23.409 46.989,13 32,13C30.895,13 30,12.105 30,11C30,11 30,8.142 30,8.142C30,8.142 23.713,15 23.713,15C23.713,15 30,21.858 30,21.858L30,19Z"/></svg>